<svg width="21" height="20" viewBox="0 0 21 20" fill="none" xmlns="http://www.w3.org/2000/svg">
<g clip-path="url(#clip0_103_23)">
<path fill-rule="evenodd" clip-rule="evenodd" d="M6.76562 2C6.23519 2 5.72648 2.21071 5.35141 2.58579C4.97634 2.96086 4.76563 3.46957 4.76562 4V16C4.76563 16.5304 4.97634 17.0391 5.35141 17.4142C5.72648 17.7893 6.23519 18 6.76562 18H14.7656C15.2961 18 15.8048 17.7893 16.1798 17.4142C16.5549 17.0391 16.7656 16.5304 16.7656 16V7.414C16.7655 6.88361 16.5547 6.37499 16.1796 6L12.7656 2.586C12.3906 2.2109 11.882 2.00011 11.3516 2H6.76562ZM8.76562 12C8.76562 11.7348 8.66027 11.4804 8.47273 11.2929C8.2852 11.1054 8.03084 11 7.76562 11C7.50041 11 7.24605 11.1054 7.05852 11.2929C6.87098 11.4804 6.76562 11.7348 6.76562 12V15C6.76562 15.2652 6.87098 15.5196 7.05852 15.7071C7.24605 15.8946 7.50041 16 7.76562 16C8.03084 16 8.2852 15.8946 8.47273 15.7071C8.66027 15.5196 8.76562 15.2652 8.76562 15V12ZM10.7656 9C11.0308 9 11.2852 9.10536 11.4727 9.29289C11.6603 9.48043 11.7656 9.73478 11.7656 10V15C11.7656 15.2652 11.6603 15.5196 11.4727 15.7071C11.2852 15.8946 11.0308 16 10.7656 16C10.5004 16 10.2461 15.8946 10.0585 15.7071C9.87098 15.5196 9.76562 15.2652 9.76562 15V10C9.76562 9.73478 9.87098 9.48043 10.0585 9.29289C10.2461 9.10536 10.5004 9 10.7656 9ZM14.7656 8C14.7656 7.73478 14.6603 7.48043 14.4727 7.29289C14.2852 7.10536 14.0308 7 13.7656 7C13.5004 7 13.2461 7.10536 13.0585 7.29289C12.871 7.48043 12.7656 7.73478 12.7656 8V15C12.7656 15.2652 12.871 15.5196 13.0585 15.7071C13.2461 15.8946 13.5004 16 13.7656 16C14.0308 16 14.2852 15.8946 14.4727 15.7071C14.6603 15.5196 14.7656 15.2652 14.7656 15V8Z" fill="#F1C40F"/>
</g>
<defs>
<clipPath id="clip0_103_23">
<rect width="20" height="20" fill="white" transform="translate(0.765625)"/>
</clipPath>
</defs>
</svg>
