<svg width="21" height="21" viewBox="0 0 21 21" fill="none" xmlns="http://www.w3.org/2000/svg">
<g clip-path="url(#clip0_103_66)">
<path fill-rule="evenodd" clip-rule="evenodd" d="M8.3125 4.5C7.25163 4.5 6.23422 4.92143 5.48407 5.67158C4.73393 6.42172 4.3125 7.43914 4.3125 8.5C4.3125 9.56087 4.73393 10.5783 5.48407 11.3284C6.23422 12.0786 7.25163 12.5 8.3125 12.5C9.37337 12.5 10.3908 12.0786 11.1409 11.3284C11.8911 10.5783 12.3125 9.56087 12.3125 8.5C12.3125 7.43914 11.8911 6.42172 11.1409 5.67158C10.3908 4.92143 9.37337 4.5 8.3125 4.5ZM2.3125 8.5C2.31238 7.55571 2.53514 6.62472 2.96267 5.78274C3.3902 4.94077 4.01042 4.2116 4.7729 3.65453C5.53537 3.09746 6.41856 2.72822 7.35065 2.57684C8.28273 2.42546 9.23738 2.49621 10.137 2.78335C11.0365 3.07049 11.8557 3.56591 12.5277 4.2293C13.1997 4.89269 13.7056 5.70534 14.0044 6.60114C14.3031 7.49693 14.3862 8.4506 14.2468 9.38456C14.1075 10.3185 13.7497 11.2064 13.2025 11.976L18.0195 16.793C18.2017 16.9816 18.3025 17.2342 18.3002 17.4964C18.2979 17.7586 18.1927 18.0094 18.0073 18.1948C17.8219 18.3802 17.5711 18.4854 17.3089 18.4877C17.0467 18.49 16.7941 18.3892 16.6055 18.207L11.7895 13.391C10.8919 14.0293 9.83585 14.4082 8.73718 14.4861C7.6385 14.5641 6.53957 14.3381 5.5608 13.833C4.58203 13.3278 3.76119 12.563 3.18822 11.6224C2.61526 10.6817 2.31229 9.60144 2.3125 8.5Z" fill="#00327C"/>
</g>
<defs>
<clipPath id="clip0_103_66">
<rect width="20" height="20" fill="white" transform="translate(0.3125 0.5)"/>
</clipPath>
</defs>
</svg>
