<svg width="21" height="20" viewBox="0 0 21 20" fill="none" xmlns="http://www.w3.org/2000/svg">
<g clip-path="url(#clip0_103_29)">
<path fill-rule="evenodd" clip-rule="evenodd" d="M4.4375 2C3.90707 2 3.39836 2.21071 3.02329 2.58579C2.64821 2.96086 2.4375 3.46957 2.4375 4V15C2.4375 15.7956 2.75357 16.5587 3.31618 17.1213C3.87879 17.6839 4.64185 18 5.4375 18C6.23315 18 6.99621 17.6839 7.55882 17.1213C8.12143 16.5587 8.4375 15.7956 8.4375 15V4C8.4375 3.46957 8.22679 2.96086 7.85171 2.58579C7.47664 2.21071 6.96793 2 6.4375 2H4.4375ZM5.4375 16C5.70272 16 5.95707 15.8946 6.14461 15.7071C6.33214 15.5196 6.4375 15.2652 6.4375 15C6.4375 14.7348 6.33214 14.4804 6.14461 14.2929C5.95707 14.1054 5.70272 14 5.4375 14C5.17228 14 4.91793 14.1054 4.73039 14.2929C4.54286 14.4804 4.4375 14.7348 4.4375 15C4.4375 15.2652 4.54286 15.5196 4.73039 15.7071C4.91793 15.8946 5.17228 16 5.4375 16ZM10.4375 14.243L15.3375 9.343C15.7124 8.96795 15.9231 8.45933 15.9231 7.929C15.9231 7.39867 15.7124 6.89006 15.3375 6.515L13.9225 5.1C13.5474 4.72506 13.0388 4.51443 12.5085 4.51443C11.9782 4.51443 11.4696 4.72506 11.0945 5.1L10.4375 5.757V14.243ZM16.4375 18H9.5085L15.5085 12H16.4375C16.9679 12 17.4766 12.2107 17.8517 12.5858C18.2268 12.9609 18.4375 13.4696 18.4375 14V16C18.4375 16.5304 18.2268 17.0391 17.8517 17.4142C17.4766 17.7893 16.9679 18 16.4375 18Z" fill="#F1C40F"/>
</g>
<defs>
<clipPath id="clip0_103_29">
<rect width="20" height="20" fill="white" transform="translate(0.4375)"/>
</clipPath>
</defs>
</svg>
